<?xml version="1.0" standalone="no"?>
<!DOCTYPE svg PUBLIC "-//W3C//DTD SVG 20010904//EN"
 "http://www.w3.org/TR/2001/REC-SVG-20010904/DTD/svg10.dtd">
<svg version="1.0" xmlns="http://www.w3.org/2000/svg"
 width="951.000000pt" height="1096.000000pt" viewBox="0 0 951.000000 1096.000000"
 preserveAspectRatio="xMidYMid meet">
<metadata>
Created by potrace 1.16, written by Peter Selinger 2001-2019
</metadata>
<g transform="translate(0.000000,1096.000000) scale(0.100000,-0.100000)"
fill="#000000" stroke="none">
<path d="M1504 10946 c-3 -8 -1 -23 5 -34 10 -19 8 -19 -47 -6 -158 37 -259 1
-206 -74 18 -27 20 -24 -26 -47 -19 -10 -73 -44 -120 -75 -94 -62 -215 -123
-330 -165 -85 -31 -218 -43 -288 -27 -23 5 -42 6 -42 2 0 -12 69 -64 115 -88
84 -42 146 -55 278 -57 127 -2 127 -2 160 -32 51 -48 93 -65 181 -70 113 -7
178 12 388 113 180 87 265 113 376 114 29 0 48 6 63 21 20 20 20 21 2 42 -14
16 -4 13 42 -13 622 -347 1191 -912 1530 -1518 243 -435 444 -1174 540 -1987
8 -71 18 -150 21 -175 l6 -45 -134 131 c-135 132 -231 214 -348 296 -143 100
-193 118 -210 76 -5 -13 -9 -18 -9 -12 -2 29 -137 141 -236 194 l-60 32 60 -6
c78 -9 190 -64 261 -129 l54 -49 0 36 c0 117 -184 364 -292 391 -23 6 -28 3
-34 -19 l-6 -25 -49 39 c-26 21 -69 46 -95 56 -58 22 -79 12 -79 -38 l0 -35
-95 -9 c-52 -5 -167 -8 -255 -8 -185 0 -264 18 -355 79 -29 20 -55 34 -57 31
-11 -11 40 -100 83 -146 51 -55 166 -130 227 -150 21 -7 41 -19 44 -29 20 -64
42 -97 90 -133 87 -66 146 -80 388 -88 213 -7 230 -10 322 -50 67 -28 108 -22
100 16 l-4 25 29 -28 c283 -265 518 -599 663 -938 100 -237 166 -479 164 -614
l0 -66 -22 29 c-92 123 -193 240 -298 344 -101 101 -127 122 -148 120 -14 -2
-27 -10 -29 -18 -1 -8 28 -56 66 -105 171 -223 300 -444 413 -706 27 -64 29
-75 34 -265 3 -110 7 -226 10 -259 l4 -60 -26 60 c-55 125 -212 424 -282 535
-349 553 -823 1034 -1356 1374 -63 41 -110 77 -107 84 10 30 -39 149 -87 212
-118 156 -329 320 -412 320 -33 0 -51 -25 -42 -59 5 -21 2 -20 -48 11 -90 57
-171 88 -228 88 -45 0 -53 -3 -63 -25 -8 -19 -8 -35 0 -61 12 -41 18 -37 -88
-54 -41 -7 -106 -23 -145 -36 -91 -31 -338 -64 -480 -64 -130 0 -228 21 -325
70 -34 17 -64 29 -67 27 -7 -8 27 -68 66 -115 82 -99 272 -209 412 -238 40 -8
76 -17 79 -19 4 -3 20 -29 34 -60 44 -89 139 -156 271 -190 88 -22 239 -19
432 11 204 31 367 30 471 -5 78 -26 113 -26 141 -3 21 17 21 18 4 48 -61 108
-201 201 -414 275 l-94 33 45 8 c121 21 380 -60 490 -153 l35 -30 -50 29 c-69
39 -84 43 -106 32 -38 -21 -20 -46 113 -156 252 -208 559 -531 759 -799 413
-553 696 -1189 777 -1747 10 -71 18 -128 17 -128 -2 0 -27 11 -58 25 -103 45
-275 75 -284 49 -2 -6 29 -27 69 -47 116 -59 248 -189 293 -289 19 -43 55
-508 65 -838 4 -135 5 -488 3 -785 -6 -703 -5 -753 13 -864 17 -112 18 -111
-80 -147 -59 -21 -84 -24 -205 -24 -112 0 -149 -4 -197 -20 -98 -34 -200 -89
-348 -189 -77 -52 -177 -119 -221 -148 -44 -29 -127 -77 -185 -106 -95 -47
-111 -52 -171 -52 -83 0 -91 6 -172 142 -102 172 -161 218 -277 217 -84 -1
-149 -33 -218 -109 -65 -71 -116 -174 -144 -292 l-23 -93 -70 0 c-128 0 -250
-44 -323 -118 -63 -62 -93 -135 -100 -238 l-5 -84 2507 0 c2378 0 2507 1 2514
18 4 9 7 85 7 167 -1 141 -3 155 -31 236 -54 152 -146 266 -278 344 -28 17
-100 53 -161 80 -60 28 -155 78 -210 112 -324 201 -349 213 -464 213 -92 0
-153 -19 -299 -91 -186 -91 -237 -91 -332 6 l-53 54 12 388 c7 213 17 550 21
748 9 381 12 408 70 607 104 356 295 722 538 1033 77 99 269 311 314 347 61
48 72 89 28 101 -56 15 -378 -224 -605 -450 -80 -78 -145 -136 -145 -127 0 60
67 552 106 774 59 339 191 869 286 1145 267 780 861 1528 1633 2057 138 95
315 202 423 258 75 38 83 45 80 69 -2 15 -10 27 -20 29 -33 6 -388 -148 -553
-241 -22 -12 -71 -40 -110 -61 -104 -59 -338 -213 -456 -301 -272 -204 -549
-466 -740 -700 -288 -352 -540 -775 -694 -1163 l-55 -137 0 120 c1 259 21 704
45 985 33 377 48 500 86 682 113 548 439 1167 869 1647 48 53 97 109 110 125
44 50 293 280 383 351 87 69 101 91 72 115 -21 17 -65 -3 -220 -100 -541 -339
-1031 -856 -1329 -1403 -109 -200 -205 -420 -286 -652 l-52 -150 6 117 c12
234 75 514 172 765 88 228 280 565 410 720 51 60 58 93 18 93 -20 0 -53 -26
-138 -112 -204 -205 -361 -425 -495 -693 -44 -87 -82 -152 -84 -145 -3 8 -12
53 -22 100 -55 282 -176 578 -380 929 -378 653 -939 1172 -1648 1523 -178 88
-334 150 -358 143 -10 -4 -19 -15 -19 -26 0 -21 -3 -20 -90 2 -19 5 -84 12
-145 16 l-110 6 45 20 c69 30 242 35 340 9 41 -11 77 -18 79 -16 9 8 -24 56
-68 100 -48 48 -202 130 -296 159 -65 19 -154 20 -161 1z"/>
<path d="M6914 10006 c-22 -7 -73 -29 -112 -49 l-72 -37 0 35 c0 29 -4 36 -25
41 -65 16 -220 -76 -373 -221 -105 -100 -156 -176 -168 -254 l-7 -42 46 31
c120 81 282 130 421 129 88 0 140 -10 120 -21 -5 -3 -63 -22 -129 -43 -155
-48 -240 -84 -302 -129 -62 -44 -110 -112 -96 -135 18 -28 59 -36 121 -22 172
38 263 34 502 -19 74 -16 180 -34 235 -40 220 -24 412 53 484 192 22 43 23 44
94 55 197 31 402 145 484 268 20 31 34 58 31 61 -4 3 -28 -6 -55 -19 -99 -51
-238 -72 -378 -57 -133 14 -352 57 -409 81 -66 28 -150 54 -217 68 l-57 12 15
39 c14 36 14 42 -1 65 -14 21 -24 25 -64 24 -26 0 -65 -6 -88 -13z"/>
<path d="M7975 8585 c-60 -16 -141 -47 -197 -76 l-41 -21 6 32 c10 48 -6 70
-54 70 -116 0 -348 -140 -530 -320 -76 -76 -131 -166 -145 -237 l-6 -33 93 49
c201 105 445 144 601 97 39 -12 41 -14 18 -19 -14 -3 -65 -16 -115 -28 -252
-60 -425 -145 -512 -251 -18 -22 -33 -46 -33 -54 0 -20 60 -54 95 -54 17 0 65
7 108 15 154 29 281 16 548 -60 253 -72 346 -88 479 -83 219 9 360 82 451 236
17 30 23 32 71 32 52 0 215 35 293 63 105 38 218 102 288 165 43 39 117 129
117 142 0 4 -40 -8 -89 -26 -124 -47 -247 -61 -393 -45 -150 16 -493 103 -581
148 -72 36 -262 103 -292 103 -9 0 -14 5 -11 13 34 83 31 132 -10 147 -35 14
-99 11 -159 -5z"/>
<path d="M2210 5302 c-80 -22 -98 -80 -60 -189 11 -32 20 -58 20 -60 0 -1 -21
-5 -47 -8 -135 -19 -384 -84 -513 -134 -54 -22 -338 -72 -595 -107 -195 -26
-479 -24 -613 5 -121 25 -273 79 -348 122 l-54 30 0 -44 c0 -37 7 -54 49 -108
107 -142 279 -274 491 -377 151 -74 312 -128 439 -147 53 -8 101 -21 111 -30
10 -9 26 -37 35 -63 69 -183 277 -339 540 -407 33 -8 113 -21 178 -27 183 -18
319 -4 833 86 320 56 528 56 740 0 199 -53 226 -57 271 -45 24 7 55 23 70 36
l28 24 -30 58 c-38 75 -166 204 -270 272 -153 99 -415 215 -648 285 -60 18
-105 36 -100 39 27 17 158 29 267 24 260 -11 596 -134 821 -300 35 -26 66 -47
68 -47 8 0 -3 80 -20 140 -20 73 -81 189 -142 270 -95 126 -420 428 -544 507
-155 98 -284 145 -338 123 -35 -15 -44 -43 -36 -110 l6 -48 -102 60 c-115 68
-218 118 -304 147 -65 21 -165 33 -203 23z"/>
<path d="M6440 5013 c-68 -12 -185 -60 -259 -107 -22 -14 -43 -26 -46 -26 -3
0 -5 15 -5 33 0 69 -54 75 -163 19 -100 -52 -182 -116 -307 -242 -134 -135
-209 -261 -210 -354 l0 -29 23 19 c86 76 264 158 412 190 79 17 238 20 275 5
19 -7 21 -10 6 -10 -29 -1 -194 -59 -291 -103 -105 -46 -242 -136 -285 -185
-16 -18 -39 -51 -50 -73 l-20 -39 26 -20 c33 -26 80 -27 162 -2 164 50 307 49
596 -4 261 -49 393 -53 545 -19 140 32 278 132 327 239 26 57 28 58 114 74
235 41 507 212 595 372 15 28 25 52 23 55 -3 2 -36 -12 -74 -31 -39 -19 -106
-44 -150 -57 -173 -50 -599 -17 -848 66 -57 19 -143 43 -192 52 -124 23 -117
20 -104 44 16 30 15 99 -1 116 -16 16 -63 24 -99 17z"/>
</g>
</svg>
